#tb 0: 1/25
#media_type 0: video
#codec_id 0: rawvideo
#dimensions 0: 352x288
#sar 0: 0/1
0,          0,          0,        1,   152064, 0x3b3ffd31
0,          1,          1,        1,   152064, 0x14e0b899
0,          2,          2,        1,   152064, 0x50865a33
0,          3,          3,        1,   152064, 0x12e749e5
0,          4,          4,        1,   152064, 0xe5921130
0,          5,          5,        1,   152064, 0x2ca3b10d
0,          6,          6,        1,   152064, 0xa9a39f04
0,          7,          7,        1,   152064, 0x2c78761a
0,          8,          8,        1,   152064, 0x70890ad7
0,          9,          9,        1,   152064, 0x4fc30132
0,         10,         10,        1,   152064, 0x10e4d2c9
0,         11,         11,        1,   152064, 0xa3326b50
0,         12,         12,        1,   152064, 0x8e054bf1
0,         13,         13,        1,   152064, 0x5bd91687
0,         14,         14,        1,   152064, 0x70bab119
0,         15,         15,        1,   152064, 0x9a1ab472
0,         16,         16,        1,   152064, 0x490776a0
0,         17,         17,        1,   152064, 0xdbb52d2b
0,         18,         18,        1,   152064, 0x142714b9
0,         19,         19,        1,   152064, 0xa051ee6f
0,         20,         20,        1,   152064, 0xafa97fdf
0,         21,         21,        1,   152064, 0x1ae67347
0,         22,         22,        1,   152064, 0xc4f42ed6
0,         23,         23,        1,   152064, 0x4445dc60
0,         24,         24,        1,   152064, 0xaef4d04b
0,         25,         25,        1,   152064, 0x6a51be82
0,         26,         26,        1,   152064, 0x48356190
0,         27,         27,        1,   152064, 0xc09b5f5d
0,         28,         28,        1,   152064, 0x933d3379
0,         29,         29,        1,   152064, 0xfb57e471
0,         30,         30,        1,   152064, 0xb5b2f45c
0,         31,         31,        1,   152064, 0xce36e45e
0,         32,         32,        1,   152064, 0x582f9f64
0,         33,         33,        1,   152064, 0x2f45b1fd
0,         34,         34,        1,   152064, 0x90708fa0
0,         35,         35,        1,   152064, 0xee483b8f
0,         36,         36,        1,   152064, 0xd2163e6c
0,         37,         37,        1,   152064, 0x39492dfe
0,         38,         38,        1,   152064, 0xf89cc57f
0,         39,         39,        1,   152064, 0xbfc3c411
0,         40,         40,        1,   152064, 0x919eb007
0,         41,         41,        1,   152064, 0x2c526309
0,         42,         42,        1,   152064, 0x39f067a2
0,         43,         43,        1,   152064, 0xb7653abb
0,         44,         44,        1,   152064, 0xe26a035c
0,         45,         45,        1,   152064, 0xcef1eb3b
0,         46,         46,        1,   152064, 0xb8b3c55f
0,         47,         47,        1,   152064, 0x16ba3b13
0,         48,         48,        1,   152064, 0x153a3117
0,         49,         49,        1,   152064, 0x90a21859
0,         50,         50,        1,   152064, 0x9231b756
0,         51,         51,        1,   152064, 0x65fcbcb9
0,         52,         52,        1,   152064, 0x447eaf44
0,         53,         53,        1,   152064, 0xa26b6a8e
0,         54,         54,        1,   152064, 0x100464f8
0,         55,         55,        1,   152064, 0x479648ec
0,         56,         56,        1,   152064, 0x6742f51f
0,         57,         57,        1,   152064, 0x14e9d906
0,         58,         58,        1,   152064, 0xa058ab87
0,         59,         59,        1,   152064, 0x8d093874
0,         60,         60,        1,   152064, 0xef7f2965
0,         61,         61,        1,   152064, 0x200d02bd
0,         62,         62,        1,   152064, 0x2fb599f6
0,         63,         63,        1,   152064, 0xf65fb6e4
0,         64,         64,        1,   152064, 0x489a9152
0,         65,         65,        1,   152064, 0xbe8a2fc2
0,         66,         66,        1,   152064, 0xea04097e
0,         67,         67,        1,   152064, 0xaf0cd627
0,         68,         68,        1,   152064, 0xc0a26b27
0,         69,         69,        1,   152064, 0x985f67e7
0,         70,         70,        1,   152064, 0x7d1b4c4c
0,         71,         71,        1,   152064, 0x9908f838
0,         72,         72,        1,   152064, 0xb8fef131
0,         73,         73,        1,   152064, 0xb1feaf6c
0,         74,         74,        1,   152064, 0x37b16bda
0,         75,         75,        1,   152064, 0x242471aa
0,         76,         76,        1,   152064, 0xf18c3839
0,         77,         77,        1,   152064, 0xf676d780
0,         78,         78,        1,   152064, 0x17bd0f76
0,         79,         79,        1,   152064, 0x3703e7a6
0,         80,         80,        1,   152064, 0x69ba8a8a
0,         81,         81,        1,   152064, 0x205281b3
0,         82,         82,        1,   152064, 0x54bf51e1
0,         83,         83,        1,   152064, 0xf6daf8ed
0,         84,         84,        1,   152064, 0x8728e805
0,         85,         85,        1,   152064, 0xe98cd2b0
0,         86,         86,        1,   152064, 0x7ef76e26
0,         87,         87,        1,   152064, 0x0fbf5230
0,         88,         88,        1,   152064, 0x9e4d104b
0,         89,         89,        1,   152064, 0xd562b815
